<svg width="512" height="512" viewBox="0 0 512 512" fill="none" xmlns="http://www.w3.org/2000/svg">
  <defs>
    <linearGradient id="mainGradient" x1="0%" y1="0%" x2="100%" y2="100%">
      <stop offset="0%" stop-color="#3b82f6" />
      <stop offset="100%" stop-color="#10b981" />
    </linearGradient>
    <filter id="glow" x="-20%" y="-20%" width="140%" height="140%">
      <feGaussianBlur stdDeviation="15" result="blur" />
      <feComposite in="SourceGraphic" in2="blur" operator="over" />
    </filter>
  </defs>
  
  <!-- Abstract G / Lamp Shape -->
  <path d="M256 64C150 64 64 150 64 256s86 192 192 192c88 0 162-58 184-138h-94c-16 36-52 62-94 62-60 0-108-48-108-108s48-108 108-108c38 0 72 20 92 50l64-46C376 118 320 64 256 64z" 
        fill="url(#mainGradient)" />
        
  <!-- Spark / Code Element -->
  <path d="M360 160 L390 220 L450 250 L390 280 L360 340 L330 280 L270 250 L330 220 Z" 
        fill="#10b981" opacity="0.9" />
        
  <!-- Center Dot/Eye -->
  <circle cx="256" cy="256" r="24" fill="#3b82f6" />
</svg>
